<svg id="visual" viewBox="0 0 900 600" width="900" height="600" xmlns="http://www.w3.org/2000/svg" xmlns:xlink="http://www.w3.org/1999/xlink" version="1.1"><g stroke-width="1" stroke-linejoin="bevel"><path d="M442 275L471 249L397.7 241Z" fill="#101518" stroke="#101518"></path><path d="M397.7 241L407.7 298L442 275Z" fill="#284a5c" stroke="#284a5c"></path><path d="M452 153L384.7 184L397.7 241Z" fill="#030303" stroke="#030303"></path><path d="M397.7 241L330.4 250L407.7 298Z" fill="#101518" stroke="#101518"></path><path d="M471 249L452 153L397.7 241Z" fill="#2d586f" stroke="#2d586f"></path><path d="M502.3 323L523.3 238L471 249Z" fill="#326782" stroke="#326782"></path><path d="M471 249L520.3 173L452 153Z" fill="#326782" stroke="#326782"></path><path d="M502.3 323L471 249L442 275Z" fill="#233c4a" stroke="#233c4a"></path><path d="M384.7 184L330.4 250L397.7 241Z" fill="#3b86a9" stroke="#3b86a9"></path><path d="M523.3 238L520.3 173L471 249Z" fill="#233c4a" stroke="#233c4a"></path><path d="M462 352L502.3 323L442 275Z" fill="#3b86a9" stroke="#3b86a9"></path><path d="M480 103L396.7 131L452 153Z" fill="#101518" stroke="#101518"></path><path d="M452 153L396.7 131L384.7 184Z" fill="#284a5c" stroke="#284a5c"></path><path d="M384.7 184L343.4 152L330.4 250Z" fill="#1d2f39" stroke="#1d2f39"></path><path d="M502.3 323L549.6 258L523.3 238Z" fill="#3f96be" stroke="#3f96be"></path><path d="M523.3 238L592.6 197L520.3 173Z" fill="#101518" stroke="#101518"></path><path d="M427 398L462 352L407.7 298Z" fill="#3f96be" stroke="#3f96be"></path><path d="M407.7 298L462 352L442 275Z" fill="#3f96be" stroke="#3f96be"></path><path d="M396.7 131L343.4 152L384.7 184Z" fill="#101518" stroke="#101518"></path><path d="M330.4 250L333.4 331L407.7 298Z" fill="#1d2f39" stroke="#1d2f39"></path><path d="M520.3 173L480 103L452 153Z" fill="#172228" stroke="#172228"></path><path d="M330.4 250L319.4 328L333.4 331Z" fill="#3b86a9" stroke="#3b86a9"></path><path d="M271.1 325L319.4 328L330.4 250Z" fill="#3b86a9" stroke="#3b86a9"></path><path d="M319.4 328L359.7 368L333.4 331Z" fill="#326782" stroke="#326782"></path><path d="M333.4 331L359.7 368L407.7 298Z" fill="#1d2f39" stroke="#1d2f39"></path><path d="M540.3 368L563.6 328L502.3 323Z" fill="#030303" stroke="#030303"></path><path d="M502.3 323L563.6 328L549.6 258Z" fill="#101518" stroke="#101518"></path><path d="M524.3 89L476 85L480 103Z" fill="#377695" stroke="#377695"></path><path d="M480 103L476 85L396.7 131Z" fill="#1d2f39" stroke="#1d2f39"></path><path d="M396.7 131L339.4 103L343.4 152Z" fill="#233c4a" stroke="#233c4a"></path><path d="M359.7 368L427 398L407.7 298Z" fill="#3b86a9" stroke="#3b86a9"></path><path d="M462 352L540.3 368L502.3 323Z" fill="#326782" stroke="#326782"></path><path d="M549.6 258L592.6 197L523.3 238Z" fill="#284a5c" stroke="#284a5c"></path><path d="M520.3 173L524.3 89L480 103Z" fill="#233c4a" stroke="#233c4a"></path><path d="M623.9 256L592.6 197L549.6 258Z" fill="#233c4a" stroke="#233c4a"></path><path d="M369.7 38L339.4 103L396.7 131Z" fill="#1d2f39" stroke="#1d2f39"></path><path d="M343.4 152L269.1 237L330.4 250Z" fill="#1d2f39" stroke="#1d2f39"></path><path d="M250.1 145L269.1 237L343.4 152Z" fill="#101518" stroke="#101518"></path><path d="M554.6 415L540.3 368L541.3 443Z" fill="#326782" stroke="#326782"></path><path d="M544.3 88L524.3 89L520.3 173Z" fill="#284a5c" stroke="#284a5c"></path><path d="M325.4 421L388.7 409L359.7 368Z" fill="#101518" stroke="#101518"></path><path d="M359.7 368L388.7 409L427 398Z" fill="#030303" stroke="#030303"></path><path d="M541.3 443L540.3 368L462 352Z" fill="#284a5c" stroke="#284a5c"></path><path d="M269.1 237L271.1 325L330.4 250Z" fill="#3f96be" stroke="#3f96be"></path><path d="M278.1 401L325.4 421L359.7 368Z" fill="#101518" stroke="#101518"></path><path d="M594.6 129L544.3 88L520.3 173Z" fill="#030303" stroke="#030303"></path><path d="M468 0L369.7 38L476 85Z" fill="#284a5c" stroke="#284a5c"></path><path d="M641.9 329L623.9 256L563.6 328Z" fill="#3f96be" stroke="#3f96be"></path><path d="M563.6 328L623.9 256L549.6 258Z" fill="#2d586f" stroke="#2d586f"></path><path d="M592.6 197L594.6 129L520.3 173Z" fill="#030303" stroke="#030303"></path><path d="M641.9 127L594.6 129L592.6 197Z" fill="#172228" stroke="#172228"></path><path d="M210.9 334L264.1 331L198.9 308Z" fill="#1d2f39" stroke="#1d2f39"></path><path d="M271.1 325L264.1 331L319.4 328Z" fill="#233c4a" stroke="#233c4a"></path><path d="M540.3 368L601.6 351L563.6 328Z" fill="#377695" stroke="#377695"></path><path d="M369.7 38L318.4 68L339.4 103Z" fill="#377695" stroke="#377695"></path><path d="M339.4 103L250.1 145L343.4 152Z" fill="#101518" stroke="#101518"></path><path d="M369.7 38L396.7 131L476 85Z" fill="#377695" stroke="#377695"></path><path d="M259.1 76L250.1 145L339.4 103Z" fill="#030303" stroke="#030303"></path><path d="M198.9 308L264.1 331L271.1 325Z" fill="#233c4a" stroke="#233c4a"></path><path d="M468 0L476 85L490.3 0Z" fill="#101518" stroke="#101518"></path><path d="M278.1 401L359.7 368L319.4 328Z" fill="#1d2f39" stroke="#1d2f39"></path><path d="M541.3 443L462 352L488.3 469Z" fill="#326782" stroke="#326782"></path><path d="M540.3 368L554.6 415L601.6 351Z" fill="#1d2f39" stroke="#1d2f39"></path><path d="M462 352L427 398L488.3 469Z" fill="#030303" stroke="#030303"></path><path d="M250.1 145L235.1 162L269.1 237Z" fill="#233c4a" stroke="#233c4a"></path><path d="M594.6 129L557.6 51L544.3 88Z" fill="#2d586f" stroke="#2d586f"></path><path d="M544.3 88L557.6 51L524.3 89Z" fill="#030303" stroke="#030303"></path><path d="M616.9 398L641.9 329L601.6 351Z" fill="#1d2f39" stroke="#1d2f39"></path><path d="M601.6 351L641.9 329L563.6 328Z" fill="#172228" stroke="#172228"></path><path d="M623.9 256L665.9 201L592.6 197Z" fill="#377695" stroke="#377695"></path><path d="M264.1 331L278.1 401L319.4 328Z" fill="#326782" stroke="#326782"></path><path d="M488.3 469L427 398L441 493Z" fill="#233c4a" stroke="#233c4a"></path><path d="M554.6 415L616.9 398L601.6 351Z" fill="#377695" stroke="#377695"></path><path d="M711.1 218L665.9 201L623.9 256Z" fill="#030303" stroke="#030303"></path><path d="M594.6 129L656.9 63L557.6 51Z" fill="#101518" stroke="#101518"></path><path d="M215.9 130L210.9 171L235.1 162Z" fill="#3f96be" stroke="#3f96be"></path><path d="M235.1 162L210.9 171L269.1 237Z" fill="#326782" stroke="#326782"></path><path d="M264.1 331L210.9 334L278.1 401Z" fill="#233c4a" stroke="#233c4a"></path><path d="M215.9 130L235.1 162L250.1 145Z" fill="#030303" stroke="#030303"></path><path d="M665.9 201L641.9 127L592.6 197Z" fill="#233c4a" stroke="#233c4a"></path><path d="M641.9 329L660.9 305L623.9 256Z" fill="#1d2f39" stroke="#1d2f39"></path><path d="M441 493L427 398L388.7 409Z" fill="#2d586f" stroke="#2d586f"></path><path d="M324.4 0L259.1 76L318.4 68Z" fill="#2d586f" stroke="#2d586f"></path><path d="M318.4 68L259.1 76L339.4 103Z" fill="#377695" stroke="#377695"></path><path d="M490.3 0L476 85L524.3 89Z" fill="#3f96be" stroke="#3f96be"></path><path d="M369.7 38L324.4 0L318.4 68Z" fill="#3b86a9" stroke="#3b86a9"></path><path d="M571.6 450L616.9 398L554.6 415Z" fill="#233c4a" stroke="#233c4a"></path><path d="M641.9 329L693.1 300L660.9 305Z" fill="#3b86a9" stroke="#3b86a9"></path><path d="M198.9 308L271.1 325L269.1 237Z" fill="#377695" stroke="#377695"></path><path d="M557.6 51L490.3 0L524.3 89Z" fill="#1d2f39" stroke="#1d2f39"></path><path d="M259.1 76L215.9 130L250.1 145Z" fill="#3f96be" stroke="#3f96be"></path><path d="M468 0L374.7 0L369.7 38Z" fill="#030303" stroke="#030303"></path><path d="M181.9 220L198.9 308L269.1 237Z" fill="#377695" stroke="#377695"></path><path d="M543.3 555L571.6 450L541.3 443Z" fill="#172228" stroke="#172228"></path><path d="M541.3 443L571.6 450L554.6 415Z" fill="#326782" stroke="#326782"></path><path d="M312.4 471L386.7 486L325.4 421Z" fill="#172228" stroke="#172228"></path><path d="M325.4 421L386.7 486L388.7 409Z" fill="#3b86a9" stroke="#3b86a9"></path><path d="M144.6 157L181.9 220L210.9 171Z" fill="#377695" stroke="#377695"></path><path d="M210.9 171L181.9 220L269.1 237Z" fill="#1d2f39" stroke="#1d2f39"></path><path d="M386.7 486L441 493L388.7 409Z" fill="#1d2f39" stroke="#1d2f39"></path><path d="M614.9 516L635.9 496L571.6 450Z" fill="#326782" stroke="#326782"></path><path d="M374.7 0L324.4 0L369.7 38Z" fill="#3f96be" stroke="#3f96be"></path><path d="M278.1 401L312.4 471L325.4 421Z" fill="#233c4a" stroke="#233c4a"></path><path d="M242.1 510L312.4 471L278.1 401Z" fill="#233c4a" stroke="#233c4a"></path><path d="M622.9 0L551.6 0L557.6 51Z" fill="#377695" stroke="#377695"></path><path d="M557.6 51L551.6 0L490.3 0Z" fill="#233c4a" stroke="#233c4a"></path><path d="M733.1 389L693.1 300L641.9 329Z" fill="#3b86a9" stroke="#3b86a9"></path><path d="M660.9 305L693.1 300L623.9 256Z" fill="#2d586f" stroke="#2d586f"></path><path d="M693.1 300L711.1 218L623.9 256Z" fill="#2d586f" stroke="#2d586f"></path><path d="M665.9 201L712.1 155L641.9 127Z" fill="#284a5c" stroke="#284a5c"></path><path d="M641.9 127L656.9 63L594.6 129Z" fill="#326782" stroke="#326782"></path><path d="M712.1 155L656.9 63L641.9 127Z" fill="#284a5c" stroke="#284a5c"></path><path d="M259.1 76L219.9 53L215.9 130Z" fill="#284a5c" stroke="#284a5c"></path><path d="M215.9 130L144.6 157L210.9 171Z" fill="#101518" stroke="#101518"></path><path d="M232.1 0L219.9 53L259.1 76Z" fill="#030303" stroke="#030303"></path><path d="M711.1 218L712.1 155L665.9 201Z" fill="#172228" stroke="#172228"></path><path d="M326.4 540L383.7 533L386.7 486Z" fill="#3b86a9" stroke="#3b86a9"></path><path d="M386.7 486L383.7 533L441 493Z" fill="#1d2f39" stroke="#1d2f39"></path><path d="M614.9 516L571.6 450L543.3 555Z" fill="#3b86a9" stroke="#3b86a9"></path><path d="M198.9 308L110.6 330L210.9 334Z" fill="#101518" stroke="#101518"></path><path d="M210.9 334L164.9 410L278.1 401Z" fill="#101518" stroke="#101518"></path><path d="M181.9 220L138.6 284L198.9 308Z" fill="#284a5c" stroke="#284a5c"></path><path d="M119.6 241L138.6 284L181.9 220Z" fill="#3b86a9" stroke="#3b86a9"></path><path d="M120.6 113L144.6 157L215.9 130Z" fill="#377695" stroke="#377695"></path><path d="M656.9 63L622.9 0L557.6 51Z" fill="#2d586f" stroke="#2d586f"></path><path d="M719.1 0L622.9 0L656.9 63Z" fill="#326782" stroke="#326782"></path><path d="M693.1 300L746.4 254L711.1 218Z" fill="#172228" stroke="#172228"></path><path d="M753.4 187L732.1 141L712.1 155Z" fill="#030303" stroke="#030303"></path><path d="M763.4 291L746.4 254L693.1 300Z" fill="#284a5c" stroke="#284a5c"></path><path d="M763.4 291L693.1 300L746.4 378Z" fill="#3b86a9" stroke="#3b86a9"></path><path d="M753.4 187L712.1 155L711.1 218Z" fill="#172228" stroke="#172228"></path><path d="M712.1 155L732.1 141L656.9 63Z" fill="#030303" stroke="#030303"></path><path d="M324.4 0L232.1 0L259.1 76Z" fill="#1d2f39" stroke="#1d2f39"></path><path d="M219.9 53L120.6 113L215.9 130Z" fill="#101518" stroke="#101518"></path><path d="M144.6 157L119.6 241L181.9 220Z" fill="#2d586f" stroke="#2d586f"></path><path d="M110.6 330L198.9 308L138.6 284Z" fill="#284a5c" stroke="#284a5c"></path><path d="M110.6 330L164.9 410L210.9 334Z" fill="#377695" stroke="#377695"></path><path d="M312.4 471L326.4 540L386.7 486Z" fill="#172228" stroke="#172228"></path><path d="M242.1 510L326.4 540L312.4 471Z" fill="#377695" stroke="#377695"></path><path d="M746.4 254L753.4 187L711.1 218Z" fill="#377695" stroke="#377695"></path><path d="M541.3 443L488.3 469L543.3 555Z" fill="#2d586f" stroke="#2d586f"></path><path d="M571.6 450L635.9 496L616.9 398Z" fill="#101518" stroke="#101518"></path><path d="M466 570L488.3 469L441 493Z" fill="#284a5c" stroke="#284a5c"></path><path d="M466 570L441 493L383.7 533Z" fill="#326782" stroke="#326782"></path><path d="M733.1 389L641.9 329L722.1 413Z" fill="#3f96be" stroke="#3f96be"></path><path d="M746.4 254L831.7 203L753.4 187Z" fill="#377695" stroke="#377695"></path><path d="M421 600L466 570L383.7 533Z" fill="#101518" stroke="#101518"></path><path d="M169.9 481L242.1 510L278.1 401Z" fill="#172228" stroke="#172228"></path><path d="M722.1 413L641.9 329L616.9 398Z" fill="#233c4a" stroke="#233c4a"></path><path d="M466 570L543.3 555L488.3 469Z" fill="#233c4a" stroke="#233c4a"></path><path d="M690.1 465L722.1 413L616.9 398Z" fill="#030303" stroke="#030303"></path><path d="M56.3 309L110.6 330L138.6 284Z" fill="#1d2f39" stroke="#1d2f39"></path><path d="M103.6 34L120.6 113L219.9 53Z" fill="#2d586f" stroke="#2d586f"></path><path d="M144.6 157L83.3 138L119.6 241Z" fill="#101518" stroke="#101518"></path><path d="M119.6 241L56.3 309L138.6 284Z" fill="#3f96be" stroke="#3f96be"></path><path d="M73.3 450L156.6 434L164.9 410Z" fill="#101518" stroke="#101518"></path><path d="M164.9 410L169.9 481L278.1 401Z" fill="#233c4a" stroke="#233c4a"></path><path d="M753.4 440L746.4 378L733.1 389Z" fill="#101518" stroke="#101518"></path><path d="M733.1 389L746.4 378L693.1 300Z" fill="#172228" stroke="#172228"></path><path d="M719.1 539L690.1 465L635.9 496Z" fill="#1d2f39" stroke="#1d2f39"></path><path d="M635.9 496L690.1 465L616.9 398Z" fill="#377695" stroke="#377695"></path><path d="M722.1 413L753.4 440L733.1 389Z" fill="#172228" stroke="#172228"></path><path d="M775.4 42L716.1 43L732.1 141Z" fill="#1d2f39" stroke="#1d2f39"></path><path d="M732.1 141L716.1 43L656.9 63Z" fill="#377695" stroke="#377695"></path><path d="M232.1 0L180.9 0L219.9 53Z" fill="#233c4a" stroke="#233c4a"></path><path d="M543.3 555L577.6 558L614.9 516Z" fill="#233c4a" stroke="#233c4a"></path><path d="M614.9 516L719.1 539L635.9 496Z" fill="#3b86a9" stroke="#3b86a9"></path><path d="M596.6 600L577.6 558L543.3 555Z" fill="#2d586f" stroke="#2d586f"></path><path d="M158.6 496L169.9 481L156.6 434Z" fill="#030303" stroke="#030303"></path><path d="M156.6 434L169.9 481L164.9 410Z" fill="#030303" stroke="#030303"></path><path d="M376.7 600L421 600L383.7 533Z" fill="#377695" stroke="#377695"></path><path d="M466 570L509.3 600L543.3 555Z" fill="#101518" stroke="#101518"></path><path d="M376.7 600L383.7 533L326.4 540Z" fill="#3f96be" stroke="#3f96be"></path><path d="M376.7 600L326.4 540L312.4 600Z" fill="#2d586f" stroke="#2d586f"></path><path d="M45.3 84L83.3 138L120.6 113Z" fill="#3f96be" stroke="#3f96be"></path><path d="M120.6 113L83.3 138L144.6 157Z" fill="#030303" stroke="#030303"></path><path d="M233.1 554L326.4 540L242.1 510Z" fill="#101518" stroke="#101518"></path><path d="M421 600L509.3 600L466 570Z" fill="#101518" stroke="#101518"></path><path d="M769.4 0L719.1 0L716.1 43Z" fill="#2d586f" stroke="#2d586f"></path><path d="M716.1 43L719.1 0L656.9 63Z" fill="#030303" stroke="#030303"></path><path d="M171.9 523L233.1 554L242.1 510Z" fill="#377695" stroke="#377695"></path><path d="M753.4 187L792.4 121L732.1 141Z" fill="#030303" stroke="#030303"></path><path d="M831.7 203L792.4 121L753.4 187Z" fill="#2d586f" stroke="#2d586f"></path><path d="M764.4 507L753.4 440L690.1 465Z" fill="#377695" stroke="#377695"></path><path d="M690.1 465L753.4 440L722.1 413Z" fill="#172228" stroke="#172228"></path><path d="M746.4 378L825.7 315L763.4 291Z" fill="#377695" stroke="#377695"></path><path d="M851.7 231L831.7 203L746.4 254Z" fill="#172228" stroke="#172228"></path><path d="M128.6 518L158.6 496L73.3 450Z" fill="#3b86a9" stroke="#3b86a9"></path><path d="M169.9 481L171.9 523L242.1 510Z" fill="#233c4a" stroke="#233c4a"></path><path d="M280.1 600L312.4 600L326.4 540Z" fill="#3b86a9" stroke="#3b86a9"></path><path d="M48.3 224L56.3 309L119.6 241Z" fill="#284a5c" stroke="#284a5c"></path><path d="M110.6 330L73.3 450L164.9 410Z" fill="#326782" stroke="#326782"></path><path d="M41.3 178L48.3 224L119.6 241Z" fill="#233c4a" stroke="#233c4a"></path><path d="M158.6 496L171.9 523L169.9 481Z" fill="#284a5c" stroke="#284a5c"></path><path d="M233.1 554L280.1 600L326.4 540Z" fill="#326782" stroke="#326782"></path><path d="M128.6 518L171.9 523L158.6 496Z" fill="#101518" stroke="#101518"></path><path d="M180.9 0L103.6 34L219.9 53Z" fill="#101518" stroke="#101518"></path><path d="M83.3 138L41.3 178L119.6 241Z" fill="#3f96be" stroke="#3f96be"></path><path d="M792.4 121L775.4 42L732.1 141Z" fill="#2d586f" stroke="#2d586f"></path><path d="M199.9 600L280.1 600L233.1 554Z" fill="#326782" stroke="#326782"></path><path d="M509.3 600L596.6 600L543.3 555Z" fill="#377695" stroke="#377695"></path><path d="M577.6 558L627.9 600L614.9 516Z" fill="#3f96be" stroke="#3f96be"></path><path d="M854.7 333L825.7 315L746.4 378Z" fill="#2d586f" stroke="#2d586f"></path><path d="M851.7 231L746.4 254L763.4 291Z" fill="#172228" stroke="#172228"></path><path d="M792.4 121L807.7 56L775.4 42Z" fill="#233c4a" stroke="#233c4a"></path><path d="M45.3 84L41.3 178L83.3 138Z" fill="#3b86a9" stroke="#3b86a9"></path><path d="M0 314L39.3 380L56.3 309Z" fill="#172228" stroke="#172228"></path><path d="M180.9 0L109.6 0L103.6 34Z" fill="#030303" stroke="#030303"></path><path d="M103.6 34L45.3 84L120.6 113Z" fill="#284a5c" stroke="#284a5c"></path><path d="M596.6 600L627.9 600L577.6 558Z" fill="#030303" stroke="#030303"></path><path d="M807.7 56L769.4 0L775.4 42Z" fill="#3b86a9" stroke="#3b86a9"></path><path d="M775.4 42L769.4 0L716.1 43Z" fill="#377695" stroke="#377695"></path><path d="M627.9 600L719.1 539L614.9 516Z" fill="#030303" stroke="#030303"></path><path d="M849.7 436L854.7 333L746.4 378Z" fill="#233c4a" stroke="#233c4a"></path><path d="M828.7 98L807.7 56L792.4 121Z" fill="#3b86a9" stroke="#3b86a9"></path><path d="M73.3 450L158.6 496L156.6 434Z" fill="#2d586f" stroke="#2d586f"></path><path d="M171.9 523L199.9 600L233.1 554Z" fill="#1d2f39" stroke="#1d2f39"></path><path d="M825.7 315L851.7 231L763.4 291Z" fill="#233c4a" stroke="#233c4a"></path><path d="M831.7 203L828.7 98L792.4 121Z" fill="#030303" stroke="#030303"></path><path d="M900 158L828.7 98L831.7 203Z" fill="#377695" stroke="#377695"></path><path d="M60.3 0L45.3 84L103.6 34Z" fill="#172228" stroke="#172228"></path><path d="M39.3 380L73.3 450L110.6 330Z" fill="#377695" stroke="#377695"></path><path d="M0 250L56.3 309L48.3 224Z" fill="#101518" stroke="#101518"></path><path d="M56.3 309L39.3 380L110.6 330Z" fill="#3f96be" stroke="#3f96be"></path><path d="M719.1 539L764.4 507L690.1 465Z" fill="#3b86a9" stroke="#3b86a9"></path><path d="M849.7 436L746.4 378L753.4 440Z" fill="#2d586f" stroke="#2d586f"></path><path d="M825.7 315L900 266L851.7 231Z" fill="#2d586f" stroke="#2d586f"></path><path d="M125.6 600L199.9 600L171.9 523Z" fill="#2d586f" stroke="#2d586f"></path><path d="M0 166L0 250L48.3 224Z" fill="#172228" stroke="#172228"></path><path d="M0 166L48.3 224L41.3 178Z" fill="#3b86a9" stroke="#3b86a9"></path><path d="M45.3 84L0 166L41.3 178Z" fill="#101518" stroke="#101518"></path><path d="M0 250L0 314L56.3 309Z" fill="#172228" stroke="#172228"></path><path d="M0 406L36.3 471L73.3 450Z" fill="#3f96be" stroke="#3f96be"></path><path d="M109.6 0L60.3 0L103.6 34Z" fill="#284a5c" stroke="#284a5c"></path><path d="M45.3 84L0 94L0 166Z" fill="#3f96be" stroke="#3f96be"></path><path d="M719.1 539L782.4 521L764.4 507Z" fill="#101518" stroke="#101518"></path><path d="M764.4 507L808.7 494L753.4 440Z" fill="#3f96be" stroke="#3f96be"></path><path d="M760.4 600L782.4 521L719.1 539Z" fill="#3f96be" stroke="#3f96be"></path><path d="M627.9 600L706.1 600L719.1 539Z" fill="#101518" stroke="#101518"></path><path d="M855.7 509L808.7 494L782.4 521Z" fill="#284a5c" stroke="#284a5c"></path><path d="M782.4 521L808.7 494L764.4 507Z" fill="#3b86a9" stroke="#3b86a9"></path><path d="M0 314L0 374L39.3 380Z" fill="#2d586f" stroke="#2d586f"></path><path d="M73.3 450L36.3 471L128.6 518Z" fill="#030303" stroke="#030303"></path><path d="M128.6 518L125.6 600L171.9 523Z" fill="#3b86a9" stroke="#3b86a9"></path><path d="M0 68L0 94L45.3 84Z" fill="#1d2f39" stroke="#1d2f39"></path><path d="M808.7 494L849.7 436L753.4 440Z" fill="#2d586f" stroke="#2d586f"></path><path d="M0 406L73.3 450L39.3 380Z" fill="#3f96be" stroke="#3f96be"></path><path d="M900 290L900 266L825.7 315Z" fill="#377695" stroke="#377695"></path><path d="M851.7 231L900 158L831.7 203Z" fill="#3f96be" stroke="#3f96be"></path><path d="M900 290L825.7 315L854.7 333Z" fill="#1d2f39" stroke="#1d2f39"></path><path d="M0 374L0 406L39.3 380Z" fill="#326782" stroke="#326782"></path><path d="M60.3 0L0 68L45.3 84Z" fill="#1d2f39" stroke="#1d2f39"></path><path d="M900 359L900 290L854.7 333Z" fill="#3f96be" stroke="#3f96be"></path><path d="M900 266L900 158L851.7 231Z" fill="#284a5c" stroke="#284a5c"></path><path d="M900 51L853.7 0L807.7 56Z" fill="#030303" stroke="#030303"></path><path d="M807.7 56L853.7 0L769.4 0Z" fill="#3b86a9" stroke="#3b86a9"></path><path d="M57.3 561L125.6 600L128.6 518Z" fill="#3b86a9" stroke="#3b86a9"></path><path d="M849.7 436L900 359L854.7 333Z" fill="#326782" stroke="#326782"></path><path d="M900 51L807.7 56L828.7 98Z" fill="#284a5c" stroke="#284a5c"></path><path d="M900 158L900 100L828.7 98Z" fill="#1d2f39" stroke="#1d2f39"></path><path d="M706.1 600L760.4 600L719.1 539Z" fill="#233c4a" stroke="#233c4a"></path><path d="M900 476L900 412L849.7 436Z" fill="#326782" stroke="#326782"></path><path d="M849.7 436L900 412L900 359Z" fill="#284a5c" stroke="#284a5c"></path><path d="M60.3 0L0 0L0 68Z" fill="#101518" stroke="#101518"></path><path d="M855.7 509L849.7 436L808.7 494Z" fill="#030303" stroke="#030303"></path><path d="M0 492L57.3 561L36.3 471Z" fill="#326782" stroke="#326782"></path><path d="M36.3 471L57.3 561L128.6 518Z" fill="#3b86a9" stroke="#3b86a9"></path><path d="M821.7 600L855.7 509L782.4 521Z" fill="#377695" stroke="#377695"></path><path d="M900 100L900 51L828.7 98Z" fill="#326782" stroke="#326782"></path><path d="M0 406L0 492L36.3 471Z" fill="#1d2f39" stroke="#1d2f39"></path><path d="M0 600L74.3 600L57.3 561Z" fill="#3f96be" stroke="#3f96be"></path><path d="M57.3 561L74.3 600L125.6 600Z" fill="#233c4a" stroke="#233c4a"></path><path d="M900 514L900 476L855.7 509Z" fill="#2d586f" stroke="#2d586f"></path><path d="M855.7 509L900 476L849.7 436Z" fill="#1d2f39" stroke="#1d2f39"></path><path d="M900 51L900 0L853.7 0Z" fill="#030303" stroke="#030303"></path><path d="M760.4 600L821.7 600L782.4 521Z" fill="#2d586f" stroke="#2d586f"></path><path d="M0 492L0 555L57.3 561Z" fill="#1d2f39" stroke="#1d2f39"></path><path d="M900 600L900 514L855.7 509Z" fill="#3f96be" stroke="#3f96be"></path><path d="M0 555L0 600L57.3 561Z" fill="#377695" stroke="#377695"></path><path d="M821.7 600L900 600L855.7 509Z" fill="#233c4a" stroke="#233c4a"></path></g></svg>